<svg width="130" height="130" viewBox="0 0 130 130" fill="none" xmlns="http://www.w3.org/2000/svg">
<path opacity="0.9" d="M64.9849 15.7225L67.5238 12.4184C66.7932 11.8568 65.8972 11.5524 64.9758 11.5524C64.0541 11.5524 63.1584 11.8568 62.4275 12.4184L64.9849 15.7225ZM108.629 28.547H112.792C112.8 27.9948 112.697 27.4466 112.492 26.934C112.286 26.4214 111.981 25.9546 111.594 25.5606C111.207 25.1667 110.746 24.8532 110.237 24.6385C109.728 24.4238 109.182 24.312 108.629 24.3095V28.547ZM64.9849 117.702L62.6702 121.175C63.3524 121.631 64.1548 121.875 64.9758 121.875C65.7967 121.875 66.5988 121.631 67.281 121.175L64.9849 117.702ZM21.378 28.547V24.3656C20.8257 24.368 20.2794 24.4798 19.7706 24.6945C19.2617 24.9092 18.8004 25.2226 18.4134 25.6166C18.0264 26.0106 17.7212 26.4774 17.5156 26.99C17.3099 27.5026 17.2078 28.0508 17.2152 28.603L21.378 28.547ZM62.4463 19.008C81.3376 33.6434 102.973 32.71 108.648 32.71V24.3656C102.768 24.3656 83.9324 25.1122 67.5797 12.4184L62.4463 19.008ZM104.485 28.4724C104.168 47.8117 103.347 61.4575 101.778 71.5566C100.21 81.6556 98.0449 87.5547 95.1888 91.7735C92.3327 95.9923 88.6738 98.7363 83.3165 101.928C77.9589 105.121 71.1079 108.667 62.6702 114.249L67.3746 121.175C75.3641 115.854 82.0097 112.457 87.666 109.078C93.3655 105.974 98.3114 101.653 102.152 96.4217C105.885 90.8216 108.443 83.3544 110.085 72.826C111.728 62.2976 112.568 48.1293 112.886 28.603L104.485 28.4724ZM67.3746 114.249C58.9929 108.649 52.1607 105.177 46.8405 101.947C41.5202 98.7178 37.8614 96.1415 34.9864 91.7735C32.1118 87.4052 29.7784 81.5997 28.173 71.5566C26.5676 61.5137 25.8582 47.8117 25.5409 28.4724L17.2152 28.603C17.5326 48.1293 18.3913 62.335 20.0153 72.826C21.6394 83.317 24.1222 90.7842 27.9303 96.4217C31.7524 101.656 36.6868 105.979 42.3789 109.078C47.9789 112.457 54.6808 115.854 62.6702 121.175L67.3746 114.249ZM21.378 32.71C26.9783 32.71 48.6325 33.6434 67.5238 19.008L62.4275 12.4184C46.0377 25.1122 27.2023 24.3656 21.3594 24.3656L21.378 32.71Z" fill="#3688EB"/>
</svg>
