<svg width="426" height="78" viewBox="0 0 426 78" fill="none" xmlns="http://www.w3.org/2000/svg">
<path d="M6.09375 7.5H17.25V60.8438H42.0938V69H6.09375V7.5ZM84.5625 54.75H64.6875L60.2812 70.125L50.3438 68.8125L70.3125 6.1875H80.0625L100.219 68.3438L89.0625 70.125L84.5625 54.75ZM67.3125 45.8438H81.9375L74.8125 20.9062L67.3125 45.8438ZM131.156 70.5938C125.156 70.5938 120.062 68.7188 115.875 64.9688C111 60.5938 108.594 54.4062 108.656 46.4062V7.59375H120V46.4062C120 51.5312 121.438 55.5625 124.312 58.5C126.688 60.9375 129.344 62.1562 132.281 62.1562C135.094 62.1562 137.625 60.9062 139.875 58.4062C142.438 55.4688 143.719 51.4688 143.719 46.4062V7.59375H155.156V46.4062C155.156 54.4062 152.469 60.625 147.094 65.0625C142.594 68.75 137.281 70.5938 131.156 70.5938ZM164.156 37.4062C164.156 29.0938 166.344 21.9375 170.719 15.9375C175.781 9.0625 182.625 5.625 191.25 5.625C196.688 5.625 202.969 7.84375 210.094 12.2812L206.062 19.7812C202 17.4062 199.938 16.1563 199.875 16.0312C197.562 14.9687 195.188 14.4062 192.75 14.3438C187.625 14.3438 183.594 17.25 180.656 23.0625C178.281 27.6875 177.094 32.8125 177.094 38.4375C177.094 44.5 178.656 49.625 181.781 53.8125C184.719 57.75 188.281 59.75 192.469 59.8125C194.719 59.8125 196.844 59.4062 198.844 58.5938C200.406 58.0312 202.875 56.7812 206.25 54.8438L210.75 62.3438C206.5 65.0938 203.188 66.9688 200.812 67.9688C197.75 69.1562 194.375 69.75 190.688 69.75C182 69.75 175.25 66.375 170.438 59.625C166.25 53.625 164.156 46.2188 164.156 37.4062ZM253.125 40.0312H232.031V69H220.688V7.59375H232.031V31.5H253.125V7.59375H264.375V69H253.125V40.0312Z" fill="#888888"/>
<path d="M287.531 44.1562V69H276.469V7.5L294.469 7.21875C299.719 7.15625 304.156 8.90625 307.781 12.4688C311.469 15.9688 313.312 20.375 313.312 25.6875C313.312 30.625 311.156 34.9688 306.844 38.7188C302.594 42.4688 297.812 44.3438 292.5 44.3438C291.75 44.3438 290.094 44.2812 287.531 44.1562ZM287.531 14.3438V37.5938H290.625C293.812 37.5938 296.531 36.4375 298.781 34.125C301.094 31.75 302.25 29.0312 302.25 25.9688C302.25 18.6562 298.75 14.7188 291.75 14.1562C291.312 14.0938 290.594 14.125 289.594 14.25C288.656 14.3125 287.969 14.3438 287.531 14.3438ZM352.406 54.75H332.531L328.125 70.125L318.188 68.8125L338.156 6.1875H347.906L368.062 68.3438L356.906 70.125L352.406 54.75ZM335.156 45.8438H349.781L342.656 20.9062L335.156 45.8438ZM376.5 68.8125V7.3125C381.625 7.0625 386.812 6.90625 392.062 6.84375C411.562 6.84375 421.406 17.2187 421.594 37.9688C421.656 47.7812 419.188 55.375 414.188 60.75C409.062 66.375 401.562 69.1875 391.688 69.1875C390.125 69.1875 387.844 69.125 384.844 69C381.906 68.875 379.125 68.8125 376.5 68.8125ZM392.906 14.3438C392.469 14.3438 391.719 14.3438 390.656 14.3438C389.719 14.4062 388.875 14.4375 388.125 14.4375V60.6562H393.469C398.406 60.6562 402.406 58.3125 405.469 53.625C408.219 49.4375 409.594 44.5312 409.594 38.9062C409.594 22.5312 404.031 14.3438 392.906 14.3438Z" fill="#FF007A"/>
</svg>
