<svg width="24" height="19" viewBox="0 0 24 19" fill="none" xmlns="http://www.w3.org/2000/svg">
<path d="M22.0844 2.23277L24 0.4011V0H17.3656L12.6375 11.7669L7.25938 0H0.303171V0.4011L2.54068 3.09406C2.75935 3.29313 2.87182 3.58538 2.84373 3.87774V14.4598C2.91247 14.8424 2.79064 15.231 2.52184 15.5078L0 18.5646V18.9595H7.1437V18.5583L4.62495 15.511C4.49007 15.3745 4.3885 15.2091 4.32841 15.0273C4.26821 14.8456 4.25102 14.6524 4.27816 14.463V5.30819L10.55 18.9657H11.2781L16.6719 5.30819V16.1889C16.6719 16.4749 16.6719 16.534 16.4844 16.7237L14.5438 18.5988V19H23.9563V18.5988L22.0844 16.7672C21.9219 16.6428 21.8375 16.4345 21.8719 16.2324V2.76761C21.8556 2.6676 21.8669 2.56523 21.9042 2.47112C21.9417 2.37701 22.0039 2.29469 22.0844 2.23277Z" fill="white"/>
</svg>
